PathFileType	4	(X/Y/Z)	/Users/visionmauri/2_8_1_f_Sports2D/2_8_1_f_Sports2D_px_person00.trc
DataRate	CameraRate	NumFrames	NumMarkers	Units	OrigDataRate	OrigDataStartFrame	OrigNumFrames
30.0	30.0	7	22	m	30.0	0	350
Frame#	Time	Hip			RHip			RKnee			RAnkle			RBigToe			RSmallToe			RHeel			LHip			LKnee			LAnkle			LBigToe			LSmallToe			LHeel			Neck			Head			Nose			RShoulder			RElbow			RWrist			LShoulder			LElbow			LWrist			
		X1	Y1	Z1	X2	Y2	Z2	X3	Y3	Z3	X4	Y4	Z4	X5	Y5	Z5	X6	Y6	Z6	X7	Y7	Z7	X8	Y8	Z8	X9	Y9	Z9	X10	Y10	Z10	X11	Y11	Z11	X12	Y12	Z12	X13	Y13	Z13	X14	Y14	Z14	X15	Y15	Z15	X16	Y16	Z16	X17	Y17	Z17	X18	Y18	Z18	X19	Y19	Z19	X20	Y20	Z20	X21	Y21	Z21	X22	Y22	Z22
0	0.0	586.940723128629	763.0543195649324	0.0	678.3411963749903	817.896331859269	0.0	705.7616113929091	1137.7944909839632	0.0	605.2213221365374	1471.404450569778	0.0	664.6311548119191	1549.0957075247684	0.0	678.3418141686499	1558.2343688051335	0.0	568.6616920679571	1535.3842974371619	0.0	490.97034002940643	808.7553280476635	0.0	500.1108264585601	1133.2242891989856	0.0	481.8305662410923	1471.4063927481473	0.0	477.26191477483457	1631.3562456189838	0.0	417.8512913641761	1613.0751590530992	0.0	468.1204914441832	1539.9555891162913	0.0	628.071987787802	242.07053422970856	0.0	664.6310252380524	114.11219389509989	0.0	664.6320221553394	191.80216702201278	0.0	788.0217824159373	287.7711956439678	0.0	874.8520550304779	539.1217754401906	0.0	906.842280082821	767.6231476161556	0.0	454.4105501405799	296.9110397120544	0.0	312.740517462832	539.1225153218501	0.0	280.75056125610797	744.7724628872489	0.0
1	0.033428844317096466	589.4885909141224	764.8726326461257	0.0	681.437063471222	815.8449960644381	0.0	701.9840698038971	1136.3738388504999	0.0	608.595229601323	1473.1844068609591	0.0	669.7972511098856	1535.6399258106749	0.0	686.9721384503891	1547.4271972252159	0.0	577.0217497186873	1539.0353073851213	0.0	491.48736142945614	806.3491644766739	0.0	497.2838837341716	1137.3974207967715	0.0	480.9808330957393	1473.6681467687974	0.0	477.03343821005717	1631.4802246945073	0.0	420.866906762002	1613.6005274432316	0.0	469.5836497811765	1544.4942223744645	0.0	627.5044902956128	245.95080821812192	0.0	664.9479606434163	112.8553825889675	0.0	664.260828145417	192.1283454010922	0.0	788.2946216168501	288.4172438581556	0.0	874.0268989163567	540.7755100772689	0.0	909.5730325464168	769.8138091009903	0.0	454.5188022380601	297.11810603729435	0.0	313.4650211064879	539.6328250564943	0.0	280.0574593318193	745.8705919621887	0.0
2	0.06685768863419293	592.1898095424286	766.2653765899028	0.0	684.8034177498454	813.9527746327763	0.0	694.6049034855414	1136.277750232524	0.0	615.7303752222131	1473.7617423208549	0.0	672.9670087332269	1510.2298148564366	0.0	698.8384737626211	1526.4802999256785	0.0	591.5579796695152	1541.8050823971055	0.0	493.80446712668015	803.6496843983628	0.0	495.5742956523002	1138.693023952831	0.0	479.85766194753086	1475.7689112863616	0.0	478.52495934041315	1621.7848409710552	0.0	421.87637008988384	1609.1783743941285	0.0	472.21827621730426	1548.0109288166902	0.0	627.3419074046597	250.92116296977616	0.0	665.0592436600972	112.29385977586762	0.0	663.4492512903006	192.33068739269333	0.0	788.1829659046009	289.0795341557523	0.0	872.5071975916098	540.2764785302843	0.0	911.7318105811202	770.5003650802761	0.0	455.5996332483085	298.8017213587138	0.0	314.77680734342243	539.2020214516646	0.0	281.14934513964914	745.2697498870641	0.0
3	0.10028653295128939	594.0229340416262	765.3422665776935	0.0	686.568522986916	810.9591960867276	0.0	685.7886447404244	1137.2109621634634	0.0	626.3062356096536	1470.787718734394	0.0	672.5504099674813	1476.2318203451243	0.0	708.6755309154802	1498.3714133658775	0.0	609.4202193982529	1540.424137254699	0.0	497.51528394957455	799.8582380950207	0.0	495.7802541412563	1131.4520445297837	0.0	478.2078856027051	1473.8985718547965	0.0	482.8093443865674	1590.92549225282	0.0	416.7035740761944	1590.2544598935417	0.0	476.53547201630846	1545.299008009358	0.0	627.6774538073605	257.38834203814145	0.0	665.9274136377179	112.27817664128105	0.0	661.6923916033603	191.6721418467577	0.0	787.4472717652227	289.70278064294746	0.0	870.1651430216158	536.8226029329971	0.0	911.1772507388405	769.3929447246098	0.0	457.82873624667354	302.46636685677555	0.0	317.2442597140398	537.0748806343339	0.0	284.2057971356726	742.3139181132382	0.0
4	0.13371537726838587	595.1024277426646	762.1055035592511	0.0	685.6887615127812	806.2089695816969	0.0	680.0872756707209	1137.8831040351365	0.0	636.543195987483	1462.7046359963792	0.0	669.2279567273725	1445.559456577113	0.0	710.9411175834975	1472.532228805165	0.0	623.7231513638757	1532.4753961883146	0.0	501.00646596349213	794.6507799480937	0.0	496.3682161919127	1117.690630846395	0.0	476.5291095691415	1463.7552844349268	0.0	488.5328841616757	1540.6758983910631	0.0	404.8324867331475	1555.5539401492476	0.0	482.56720165205667	1533.0285046094111	0.0	628.0058455133254	264.9888689632065	0.0	667.9583551948953	112.34364833637234	0.0	657.8440605567994	189.75011682488483	0.0	786.8619962201007	291.2165909956052	0.0	867.5130450567267	531.8047645085327	0.0	907.1384928559647	767.4644398331653	0.0	460.68798843009574	307.1586607199781	0.0	321.2489660043059	534.1903754712287	0.0	286.88194176091827	738.4564707422007	0.0
5	0.16714422158548234	596.4332264900657	760.1415082059016	0.0	683.946201995061	801.8202838027662	0.0	677.7529336742045	1138.5756898478567	0.0	643.1915791538253	1450.6747258723633	0.0	665.6772583514719	1424.9842373087174	0.0	707.9256849161209	1453.2628202825902	0.0	631.7978267048894	1519.6943850953364	0.0	503.7776746671555	789.7910388058368	0.0	495.989863485078	1108.543392731647	0.0	476.0143201797995	1448.354091808863	0.0	491.99649810192636	1494.1314157450963	0.0	394.07721653889774	1519.6406925693811	0.0	488.5584475344544	1517.2800580780454	0.0	628.0069000315832	272.0520355756399	0.0	669.9122940879026	112.57726743604431	0.0	652.1962746773571	188.47610453847247	0.0	787.5141833672352	294.6884271995608	0.0	865.2783494932135	527.0166093156195	0.0	901.9051324244349	765.3717977609643	0.0	463.4397069440615	311.8837729293011	0.0	326.13877005109265	532.5307795435506	0.0	286.9626434297246	736.0057613044801	0.0
6	0.20057306590257878	597.5742747223213	762.760885480357	0.0	683.0358076546671	800.2306225675572	0.0	675.4878462196646	1140.1080210057266	0.0	646.1234727772322	1438.5050540879065	0.0	663.845348229219	1413.2118923201756	0.0	704.6741371612814	1438.7246591789153	0.0	635.3314251690969	1506.4604221647153	0.0	505.8338037839072	787.5982973774011	0.0	495.9409268045371	1112.3148440655718	0.0	476.5601750374577	1440.9326661993473	0.0	491.2348259508715	1480.6586949714692	0.0	393.3312151221119	1500.6306619753998	0.0	491.49953952701793	1511.5036956014299	0.0	628.6091644509255	276.7407072675728	0.0	670.9132291083911	114.14291862845978	0.0	649.9066103484836	191.75462737270317	0.0	788.9728069642274	299.50020867532544	0.0	863.8510389705467	523.6986117812437	0.0	898.2585818964274	763.8306890292376	0.0	465.42650085025485	316.40386583378523	0.0	330.39373972459	532.162404897485	0.0	285.23543502310656	736.0563158815356	0.0
